# xmcd
#
# Track frame offsets:
#	150
#	17588
#	33221
#	48505
#	67201
#	87728
#
# Disc length: 1407 seconds
#
# Revision: 1
# Processed by: cddbd v1.5.2PL0 Copyright (c) Steve Scherf et al.
# Submitted via: EZCDAudioConverter 8.0.2.1
#
DISCID=4d057d06
DTITLE=Mai Khôi - Mai Khôi Hát Lê Cát Trọng Lý
DYEAR=2011
DGENRE=World Pop
TTITLE0=Xin
TTITLE1=Mùa yêu
TTITLE2=Thương
TTITLE3=Trời ơi
TTITLE4=Con đường lạ
TTITLE5=Chưa ai
EXTD=
EXTT0=
EXTT1=
EXTT2=
EXTT3=
EXTT4=
EXTT5=
PLAYORDER=
